<svg xmlns="http://www.w3.org/2000/svg" data-name="icon_logo" viewBox="0 0 590 125"><title>VELOSKLAD</title><path fill="#E4001B" fill-rule="evenodd" d="M87.8 48.3c-1.8 24-30.8 59.5-43.2 70-12.4-10.5-41.4-46.1-43.2-70a43.3 43.3 0 1 1 86.4 0z" clip-rule="evenodd"/><path fill="#FFF" fill-rule="evenodd" d="M41.4 48.3c.2 2.6-.3 11.9.4 13.5a3.1 3.1 0 0 0 4.5 1.2c1.6-1.1 1.4-3.4 1.4-5.7 0-14.8 2.8-11.8-9.1-19.4l7.3-7.1c5.2 7.8 2.2 6.7 13.6 6.8 1.5 0 3.4.2 4.3-.7 1.1-1.1.2-3.2-1.2-3.2l-9-.4c-1.1-.3-3.3-4.6-4-5.5-1.3-1.9-2.3-4.4-4.4-5.4-3.8-1.8-7.1 3-11.2 7.1l-4.7 4.7c-2 1.9-2.6 4.8-.3 6.9.9 1 10.2 5.9 12.4 7.2zm9.9-34.5c3 0 5.4 2.4 5.4 5.4 0 3-2.4 5.4-5.4 5.4-3 0-5.4-2.4-5.4-5.4 0-3 2.4-5.4 5.4-5.4zm14.1 31.5a14.3 14.3 0 1 1 0 28.6 14.3 14.3 0 0 1 0-28.6zm0 4.8a9.6 9.6 0 1 1 0 19.2 9.6 9.6 0 0 1 0-19.2zm-41.7-4.8a14.3 14.3 0 1 1 0 28.6 14.3 14.3 0 0 1 0-28.6zm0 4.8a9.6 9.6 0 1 1 0 19.2 9.6 9.6 0 0 1 0-19.2z" clip-rule="evenodd"/><path fill="#222221" d="M323.8 34c0-3.4-.2-6.3-.7-9-.5-2.6-1.1-4.9-2.1-7-.9-2.1-2.1-3.9-3.6-5.6a21.8 21.8 0 0 0-17.6-7.8 21.8 21.8 0 0 0-17.4 7.8 32 32 0 0 0-3.1 4.4 26.7 26.7 0 0 0-3 11.9c-.2 2.5-.3 5.5-.3 8.9v5.1l.1 6.5c.1 2.2.3 4.4.7 6.5a25.4 25.4 0 0 0 5.5 12.1 21.8 21.8 0 0 0 17.6 7.9 21.9 21.9 0 0 0 17.4-7.9 24.2 24.2 0 0 0 5.5-11.7c.4-2.1.7-4.3.8-6.5l.1-6.7V34h.1zm-15.5 8.1l-.2 7.4c-.1 2-.4 3.6-.7 4.8-.3 1.2-.8 2.2-1.3 3-.7 1-1.6 1.8-2.7 2.3a7 7 0 0 1-3.5.8c-1.2 0-2.4-.3-3.5-.8s-2-1.3-2.7-2.3c-.6-.8-1-1.8-1.3-3a26 26 0 0 1-.7-4.8l-.2-7.4v-4.8l.2-6.1c.1-1.9.4-3.5.7-4.9.3-1.4.8-2.5 1.3-3.3a7.5 7.5 0 0 1 6.2-3.1 7.4 7.4 0 0 1 6.2 3.1c.6.8 1 1.9 1.3 3.3.3 1.4.6 3 .7 4.9l.2 6.1v4.8zm-38.6 33.1v-70h-41.2v33.6c0 3.5-.2 6.5-.4 9-.3 2.5-.7 4.5-1.2 6.1-.5 1.6-1.2 2.8-1.9 3.7-.8.9-1.6 1.5-2.6 1.8-.9.3-2 .5-3.1.5h-1.8v15.4h5.9c2.7 0 5.2-.3 7.3-1 2.2-.7 4-1.8 5.6-3.4 1.6-1.6 2.9-3.8 4-6.5 1.1-2.8 1.8-6.3 2.4-10.4.5-4.2.8-9.2.8-15V20.6h10.9v54.6h15.3zm-58.4 0V59.9h-27.2V47.6h23.2V32.2h-23.2V20.6h27.2V5.3h-42.6v70h42.6v-.1zM163 54.7c0-2.3-.3-4.4-.8-6.2a16.3 16.3 0 0 0-7-9.1c1.6-1.3 2.9-2.7 3.9-4.1 1-1.4 1.8-3 2.2-4.7.5-1.7.7-3.6.7-5.6 0-4-.8-7.5-2.5-10.4a16.7 16.7 0 0 0-6.9-6.8c-3-1.6-6.5-2.4-10.6-2.4h-26v70h27.3c4 0 7.4-.9 10.3-2.6 2.9-1.7 5.2-4 6.8-7.1 1.8-3.2 2.6-6.8 2.6-11zm-16.3-28.3c0 1.8-.5 3.2-1.5 4.1-1 1-2.3 1.5-4.1 1.5h-9.6V20.7h9.6c1.8 0 3.1.5 4.1 1.5 1 1 1.5 2.4 1.5 4.2zm.9 27.2c0 1.9-.5 3.4-1.5 4.5a5.3 5.3 0 0 1-4.1 1.7h-10.4V47.5H142c1.8 0 3.2.6 4.1 1.6 1 1.1 1.5 2.6 1.5 4.5z"/><path fill="#E4001B" d="M561 59.8h-14l2.1-7.7a94 94 0 0 0 2.7-17.8c.3-3.4.4-7.2.4-11.2V21h9v38.8h-.2zm20.5 23.1V59.8H575V5.9h-36.5v2.9c0 6.1-.1 11.6-.3 16.5a161.4 161.4 0 0 1-2.9 24.6c-.7 3.5-1.6 6.8-2.6 10h-5.6V83h13.4v-8H568v7.9h13.5zm-76.2-32.4h-9.9l5.1-18.4 4.8 18.4zm21 24.5L505.6 5.9h-10.8L474.1 75h14.6l2.8-10.3H509l2.6 10.3h14.7zm-54 0V5.9h-37.4v33.2a75.2 75.2 0 0 1-1.5 14.9 10 10 0 0 1-1.8 3.6c-.7.9-1.5 1.4-2.3 1.8-.9.3-1.8.5-2.8.5h-1.7V75h5.4a19 19 0 0 0 6.6-1c2-.7 3.7-1.8 5.1-3.4 1.5-1.6 2.7-3.7 3.6-6.5 1-2.7 1.7-6.2 2.1-10.3.5-4.1.7-9.1.7-14.8V21h9.9v54h14.1zm-81.7 0V38.8L407.4 75h16.5l-18.6-37L422 5.9h-16l-15.3 32.7V5.9h-14V75h13.9zM374 53h-14.2a14 14 0 0 1-1.3 3.6c-.6 1.1-1.3 2-2.3 2.7-1 .7-2.2 1.1-3.8 1.1-1.3 0-2.4-.3-3.3-.8a5.6 5.6 0 0 1-2.2-2.1l-.9-1.7a45.9 45.9 0 0 1-1.1-7.6 152.1 152.1 0 0 1 0-15.4l.4-4.8c.2-1.2.4-2.1.7-2.8l.9-1.7c.5-.8 1.3-1.5 2.2-2.1a7 7 0 0 1 3.3-.8c1.5 0 2.8.4 3.8 1.1 1 .7 1.7 1.6 2.3 2.7a14 14 0 0 1 1.3 3.6H374c-.5-3.8-1.4-7.1-2.7-10a22.8 22.8 0 0 0-4.8-7c-1.9-1.9-4-3.3-6.4-4.2a21.4 21.4 0 0 0-16.4.6 21 21 0 0 0-7 5.8 20.6 20.6 0 0 0-3.4 5.9 29 29 0 0 0-1.7 6.6c-.3 2.3-.5 4.7-.6 7.2l-.1 7.6a187.6 187.6 0 0 0 .7 14.8 29 29 0 0 0 1.7 6.6 22.4 22.4 0 0 0 10.4 11.7 21.4 21.4 0 0 0 16.4.6c2.4-.9 4.5-2.3 6.4-4.2s3.5-4.2 4.8-7c1.3-2.9 2.2-6.2 2.7-10z"/><path fill="#3A3A48" d="M131.1 93.8h1.9v22.9h-1.9V97.1h-.1l-13 19.6h-1.9V93.8h1.9v19.6h.1l13-19.6zm20.5 22.9h-1.9V109h-9.2v7.8h-1.9v-17h1.9v7.6h9.2v-7.6h1.9v16.9zm17.4-15.4h-6.2v15.4h-1.9v-15.4h-6v-1.6H169v1.6zm9.3 15.8c-2.1 0-3.9-.8-5.3-2.4a8.8 8.8 0 0 1-2.1-6v-.9a9 9 0 0 1 2.1-6.1 6.5 6.5 0 0 1 5.1-2.4c2.1 0 3.7.7 4.9 2a7.6 7.6 0 0 1 1.8 5.3v1.6h-12v.5c0 1.9.5 3.5 1.5 4.8 1 1.3 2.4 1.9 4 1.9 1.2 0 2.2-.2 3-.5a6 6 0 0 0 2.1-1.4l.8 1.3c-.6.7-1.5 1.2-2.4 1.6s-2.1.7-3.5.7zm-.2-16.1c-1.4 0-2.6.5-3.5 1.6a7.6 7.6 0 0 0-1.7 4v.1h10v-.5c0-1.5-.4-2.7-1.3-3.7-.8-1-2-1.5-3.5-1.5zm24.2 7.7a10 10 0 0 1-1.7 6.1 5.7 5.7 0 0 1-4.8 2.3 6.2 6.2 0 0 1-5.3-2.6v8.8h-1.9V99.7h1.6l.2 2.6c.6-.9 1.3-1.7 2.2-2.2.9-.5 2-.8 3.2-.8 2 0 3.6.8 4.8 2.4s1.7 3.8 1.7 6.5v.5zm-1.9-.4c0-2.2-.4-3.9-1.3-5.3s-2.1-2-3.8-2a5 5 0 0 0-3.1.9c-.8.6-1.4 1.4-1.8 2.4v8.2a5.1 5.1 0 0 0 4.9 3c1.6 0 2.9-.6 3.8-1.9a8.1 8.1 0 0 0 1.3-4.9v-.4zm19.2 8.4h-1.9V109h-9.2v7.8h-1.9v-17h1.9v7.6h9.2v-7.6h1.9v16.9zm11.4.4c-2.1 0-3.9-.8-5.3-2.4a8.8 8.8 0 0 1-2.1-6v-.9a9 9 0 0 1 2.1-6.1 6.5 6.5 0 0 1 5.1-2.4c2.1 0 3.7.7 4.9 2a7.6 7.6 0 0 1 1.8 5.3v1.6h-12v.5c0 1.9.5 3.5 1.5 4.8 1 1.3 2.4 1.9 4 1.9 1.2 0 2.2-.2 3-.5a6 6 0 0 0 2.1-1.4l.8 1.3c-.6.7-1.5 1.2-2.4 1.6-.9.5-2.1.7-3.5.7zm-.2-16.1c-1.4 0-2.6.5-3.5 1.6a7.6 7.6 0 0 0-1.7 4v.1h10v-.5c0-1.5-.4-2.7-1.3-3.7-.8-1-2-1.5-3.5-1.5zm22.6.3h-6.2v15.4h-1.9v-15.4h-6v-1.6h14.1v1.6zm9.1 6.5H255v-1.6h7.5v1.6zm12.8 6.3l6.8-14.4h2.3v17h-1.9V103h-.1l-6.5 13.8h-1.3l-6.6-14.1h-.1v14.1H266v-17h2.5l6.8 14.3zm25 2.6l-.3-1.5-.1-1.3c-.6.9-1.5 1.6-2.5 2.2a7 7 0 0 1-3.5.9c-1.7 0-2.9-.4-3.9-1.3a4.8 4.8 0 0 1-1.4-3.5c0-1.6.7-2.8 2-3.8a10 10 0 0 1 5.5-1.4h3.8v-2.1c0-1.2-.4-2.2-1.2-2.9-.8-.7-1.9-1-3.3-1-1.3 0-2.4.3-3.3 1-.9.7-1.3 1.5-1.3 2.4h-1.7v-.1c-.1-1.3.5-2.4 1.7-3.4s2.8-1.5 4.7-1.5a7 7 0 0 1 4.5 1.4c1.1 1 1.7 2.3 1.7 4.1v8.4l.1 1.7.3 1.7h-1.8zm-6.2-1.3a6 6 0 0 0 3.6-1c1-.6 1.8-1.4 2.3-2.4v-3.6h-3.8c-1.7 0-3.1.4-4.1 1.1-1 .7-1.5 1.6-1.5 2.7 0 .9.3 1.7 1 2.3.5.6 1.4.9 2.5.9zm23.3-14.1h-8.6v15.4h-1.9v-17h10.5v1.6zm13.8 15.4l-.3-1.5-.1-1.3c-.6.9-1.5 1.6-2.5 2.2a7 7 0 0 1-3.5.9c-1.7 0-2.9-.4-3.9-1.3a4.8 4.8 0 0 1-1.4-3.5c0-1.6.7-2.8 2-3.8a10 10 0 0 1 5.5-1.4h3.8v-2.1c0-1.2-.4-2.2-1.2-2.9-.8-.7-1.9-1-3.3-1-1.3 0-2.4.3-3.3 1-.9.7-1.3 1.5-1.3 2.4H320v-.1c-.1-1.3.5-2.4 1.7-3.4s2.8-1.5 4.7-1.5a7 7 0 0 1 4.5 1.4c1.1 1 1.7 2.3 1.7 4.1v8.4l.1 1.7.3 1.7h-1.8zm-6.2-1.3a6 6 0 0 0 3.6-1c1-.6 1.8-1.4 2.3-2.4v-3.6h-3.8c-1.7 0-3.1.4-4.1 1.1-1 .7-1.5 1.6-1.5 2.7 0 .9.3 1.7 1 2.3.5.6 1.4.9 2.5.9zm24.6-11.2c0 .8-.3 1.6-.8 2.2a4 4 0 0 1-2.2 1.5c1.1.3 1.9.8 2.4 1.5.6.7.8 1.5.8 2.6 0 1.6-.6 2.8-1.8 3.7a7.7 7.7 0 0 1-4.7 1.3c-1.8 0-3.3-.4-4.6-1.3a4.2 4.2 0 0 1-1.9-3.8v-.1h1.7a3 3 0 0 0 1.3 2.5c.9.7 2 1 3.4 1 1.5 0 2.6-.3 3.4-.9.8-.6 1.2-1.4 1.2-2.4 0-1.1-.4-1.9-1.1-2.5a6 6 0 0 0-3.4-.8h-2.6v-1.6h2.6c1.5 0 2.6-.3 3.2-.8.7-.5 1-1.3 1-2.2a3 3 0 0 0-1.1-2.3c-.7-.6-1.8-.9-3.2-.9-1.2 0-2.3.3-3.1.9-.9.6-1.3 1.4-1.3 2.3h-1.7v-.1c-.1-1.4.5-2.5 1.7-3.4a7.3 7.3 0 0 1 4.5-1.3c1.9 0 3.5.4 4.6 1.2s1.7 2.2 1.7 3.7zm15.7-4.5h1.9v17h-1.9v-13.9h-.1l-9.1 13.9h-1.9v-17h1.9v13.9h.1l9.1-13.9zm20 17h-1.9V109h-9.2v7.8h-1.9v-17h1.9v7.6h9.2v-7.6h1.9v16.9zm13.1 0v-17h6.3c2.1 0 3.8.4 4.9 1.1 1.2.8 1.8 1.9 1.8 3.4 0 .9-.3 1.6-.8 2.3-.5.7-1.3 1.1-2.2 1.4a5 5 0 0 1 2.7 1.4c.7.8 1 1.6 1 2.6 0 1.5-.6 2.7-1.7 3.5a7.8 7.8 0 0 1-4.6 1.2h-7.4zm1.8-9.4h4.8a6 6 0 0 0 3.3-.8c.8-.5 1.1-1.2 1.1-2.2 0-1-.4-1.8-1.2-2.3a7 7 0 0 0-3.6-.7h-4.4v6zm0 1.6v6.2h5.5c1.4 0 2.5-.3 3.3-.8.8-.5 1.2-1.3 1.2-2.3 0-.9-.4-1.7-1.2-2.2-.8-.6-1.9-.8-3.3-.8h-5.5zm22.4 8.2c-2.1 0-3.9-.8-5.3-2.4a8.8 8.8 0 0 1-2.1-6v-.9a9 9 0 0 1 2.1-6.1 6.5 6.5 0 0 1 5.1-2.4c2.1 0 3.7.7 4.9 2a7.6 7.6 0 0 1 1.8 5.3v1.6h-12v.5c0 1.9.5 3.5 1.5 4.8 1 1.3 2.4 1.9 4 1.9 1.2 0 2.2-.2 3-.5a6 6 0 0 0 2.1-1.4l.8 1.3c-.6.7-1.5 1.2-2.4 1.6-1 .5-2.1.7-3.5.7zm-.2-16.1c-1.4 0-2.6.5-3.5 1.6a7.6 7.6 0 0 0-1.7 4v.1h10v-.5c0-1.5-.4-2.7-1.3-3.7-.8-1-2-1.5-3.5-1.5zm23.5-1.3v17H444v-15.4h-7.2v5.9c0 3.3-.4 5.8-1.2 7.3a4.1 4.1 0 0 1-3.9 2.3h-.7v-1.7h.6c1.2 0 2-.6 2.5-1.7.5-1.2.8-3.2.8-6.1v-7.5h11zm4.1 8.3c0-2.5.7-4.6 2.1-6.2a7 7 0 0 1 5.5-2.4 7 7 0 0 1 5.5 2.4 9.1 9.1 0 0 1 2.1 6.2v.5c0 2.5-.7 4.6-2.1 6.2a7 7 0 0 1-5.5 2.4 7 7 0 0 1-5.5-2.4 9.1 9.1 0 0 1-2.1-6.2v-.5zm1.8.5c0 2 .5 3.6 1.5 5a5 5 0 0 0 4.2 2c1.8 0 3.1-.7 4.1-2a8 8 0 0 0 1.5-5v-.5a8 8 0 0 0-1.5-4.9c-1-1.4-2.4-2-4.2-2-1.8 0-3.1.7-4.1 2-1 1.4-1.5 3-1.5 4.9v.5zm23.5 7c1.2 0 2.4-.4 3.3-1.1 1-.7 1.4-1.7 1.4-3h1.7v.1c.1 1.6-.6 2.9-1.9 4a6.8 6.8 0 0 1-4.6 1.6c-2.3 0-4.1-.8-5.4-2.4a9.3 9.3 0 0 1-1.9-6.1v-.7c0-2.5.6-4.5 1.9-6.1a6.6 6.6 0 0 1 5.4-2.4 7 7 0 0 1 4.7 1.7 5.7 5.7 0 0 1 1.8 4.3v.1H480c0-1.4-.5-2.5-1.4-3.3-.9-.8-2-1.2-3.4-1.2-1.8 0-3.2.7-4.1 2a8.3 8.3 0 0 0-1.3 4.9v.7c0 2 .4 3.7 1.3 5 1 1.2 2.3 1.9 4.2 1.9zm21.5-15.8h1.9v17h-1.9v-13.9h-.1l-9.1 13.9h-1.9v-17h1.9v13.9h.1l9.1-13.9zm20.1 17H515v-15.4h-9.2v15.4h-1.9v-17h13v17zm11.4.4c-2.1 0-3.9-.8-5.3-2.4a8.8 8.8 0 0 1-2.1-6v-.9a9 9 0 0 1 2.1-6.1 6.5 6.5 0 0 1 5.1-2.4c2.1 0 3.7.7 4.9 2a7.6 7.6 0 0 1 1.8 5.3v1.6h-12v.5c0 1.9.5 3.5 1.5 4.8 1 1.3 2.4 1.9 4 1.9 1.2 0 2.2-.2 3-.5a6 6 0 0 0 2.1-1.4l.8 1.3c-.6.7-1.5 1.2-2.4 1.6-1 .5-2.1.7-3.5.7zm-.2-16.1c-1.4 0-2.6.5-3.5 1.6a7.6 7.6 0 0 0-1.7 4v.1h10v-.5c0-1.5-.4-2.7-1.3-3.7-.8-1-2-1.5-3.5-1.5zm10 14.1c.9-1.1 1.6-2.3 2.2-3.6.5-1.2.9-3.1 1-5.7l.3-6.2h10.1V115h1.8l-.1 6.6h-1.7v-5h-12.8v5H537l-.1-6.6h1.2zm5-9.2c-.1 2.2-.4 4.1-.9 5.6s-1.1 2.7-1.9 3.7h9.4v-13.7h-6.4l-.2 4.4zM556 108c0-2.5.7-4.6 2.1-6.2a7 7 0 0 1 5.5-2.4 7 7 0 0 1 5.5 2.4 9.1 9.1 0 0 1 2.1 6.2v.5c0 2.5-.7 4.6-2.1 6.2a7 7 0 0 1-5.5 2.4 7 7 0 0 1-5.5-2.4 9.1 9.1 0 0 1-2.1-6.2v-.5zm1.9.5c0 2 .5 3.6 1.5 5a5 5 0 0 0 4.2 2c1.8 0 3.1-.7 4.1-2a8 8 0 0 0 1.5-5v-.5a8 8 0 0 0-1.5-4.9c-1-1.4-2.4-2-4.2-2-1.8 0-3.1.7-4.1 2-1 1.4-1.5 3-1.5 4.9v.5zm17.3 8.2v-17h6.3c2.1 0 3.8.4 4.9 1.1 1.2.8 1.8 1.9 1.8 3.4 0 .9-.3 1.6-.8 2.3-.5.7-1.3 1.1-2.2 1.4a5 5 0 0 1 2.7 1.4c.7.8 1 1.6 1 2.6 0 1.5-.6 2.7-1.7 3.5a7.8 7.8 0 0 1-4.6 1.2h-7.4zm1.8-9.4h4.8a6 6 0 0 0 3.3-.8c.8-.5 1.1-1.2 1.1-2.2 0-1-.4-1.8-1.2-2.3a7 7 0 0 0-3.6-.7H577v6zm0 1.6v6.2h5.5c1.4 0 2.5-.3 3.3-.8.8-.5 1.2-1.3 1.2-2.3 0-.9-.4-1.7-1.2-2.2-.8-.6-1.9-.8-3.3-.8H577z"/></svg>